<svg width="25" height="24" viewBox="0 0 25 24" fill="none" xmlns="http://www.w3.org/2000/svg">
<path d="M14.7443 6.34017V4.40547C14.7443 3.07393 13.6648 1.99451 12.3333 1.99451C11.0018 1.99451 9.92233 3.07393 9.92233 4.40547V6.34017C9.92233 7.05049 9.54558 7.70751 8.93253 8.06629L4.0425 10.9281C3.16219 11.4433 3.52762 12.7912 4.5476 12.7912H9.07162C9.62391 12.7912 10.0716 13.2389 10.0716 13.7912V16.2677C10.0716 16.9283 9.85359 17.5704 9.45136 18.0944L7.6765 20.4066C7.35051 20.8313 7.41955 21.4379 7.83264 21.7785C8.11313 22.0097 8.4975 22.0693 8.83488 21.934L11.5717 20.8112C12.0577 20.6119 12.6026 20.6117 13.0887 20.8107L15.8317 21.934C16.1691 22.0693 16.5535 22.0097 16.8339 21.7785C17.247 21.4379 17.3161 20.8313 16.9901 20.4066L15.2152 18.0944C14.813 17.5704 14.595 16.9283 14.595 16.2677V13.7912C14.595 13.2389 15.0427 12.7912 15.595 12.7912H20.119C21.139 12.7912 21.5044 11.4433 20.6241 10.9281L15.7341 8.06629C15.121 7.70751 14.7443 7.05049 14.7443 6.34017Z" fill="#4A90E2"/>
</svg>
