<svg width="21" height="20" viewBox="0 0 21 20" fill="none" xmlns="http://www.w3.org/2000/svg">
<path fill-rule="evenodd" clip-rule="evenodd" d="M10.6666 20C16.1895 20 20.6666 15.5228 20.6666 10C20.6666 4.47715 16.1895 0 10.6666 0C5.14378 0 0.666626 4.47715 0.666626 10C0.666626 15.5228 5.14378 20 10.6666 20ZM8.16118 12.4362C7.85153 12.1645 7.38016 12.1934 7.10608 12.5017C6.83089 12.8113 6.85877 13.2854 7.16836 13.5606L7.44341 13.7719C7.60575 13.8849 7.83866 14.0306 8.1363 14.1749C8.73164 14.4635 9.59339 14.75 10.6666 14.75C11.7399 14.75 12.6016 14.4635 13.197 14.1749C13.4946 14.0306 13.7275 13.8849 13.8899 13.7719C13.9711 13.7154 14.0351 13.6668 14.0811 13.6302L14.1649 13.5606C14.4745 13.2854 14.5024 12.8113 14.2272 12.5017C13.9531 12.1934 13.4817 12.1645 13.1721 12.4362L13.0333 12.5406C12.9261 12.6152 12.7605 12.7195 12.5426 12.8251C12.1066 13.0365 11.4684 13.25 10.6666 13.25C9.86488 13.25 9.22663 13.0365 8.79071 12.8251C8.57274 12.7195 8.40721 12.6152 8.30001 12.5406L8.16118 12.4362ZM15.6666 8C15.6666 8.55229 15.2189 9 14.6666 9C14.1143 9 13.6666 8.55229 13.6666 8C13.6666 7.44772 14.1143 7 14.6666 7C15.2189 7 15.6666 7.44772 15.6666 8ZM6.66663 9C7.21891 9 7.66663 8.55229 7.66663 8C7.66663 7.44772 7.21891 7 6.66663 7C6.11434 7 5.66663 7.44772 5.66663 8C5.66663 8.55229 6.11434 9 6.66663 9Z" fill="#4A90E2"/>
</svg>
